<?xml version="1.0" standalone="no"?>
<!DOCTYPE svg PUBLIC "-//W3C//DTD SVG 20010904//EN"
 "http://www.w3.org/TR/2001/REC-SVG-20010904/DTD/svg10.dtd">
<svg version="1.0" xmlns="http://www.w3.org/2000/svg"
 width="341.000000pt" height="83.000000pt" viewBox="0 0 341.000000 83.000000"
 preserveAspectRatio="xMidYMid meet">
<metadata>
Created by potrace 1.10, written by Peter Selinger 2001-2011
</metadata>
<g transform="translate(0.000000,83.000000) scale(0.100000,-0.100000)"
fill="#ec2a55" stroke="none">
<path d="M407 760 c-38 -30 -67 -98 -67 -158 0 -29 -4 -52 -10 -52 -5 0 -10 4
-10 8 0 5 -18 18 -40 31 -81 45 -210 36 -210 -15 0 -50 66 -132 119 -149 27
-8 27 -22 0 -30 -29 -10 -87 -63 -105 -96 -26 -50 -19 -74 25 -87 21 -7 48
-12 59 -12 34 0 115 30 138 51 11 10 23 19 26 19 3 0 7 -29 10 -64 4 -71 35
-131 82 -155 25 -14 28 -13 57 15 42 39 69 99 69 156 l0 47 36 -24 c66 -45
151 -57 204 -30 17 9 30 24 30 34 0 34 -63 114 -107 136 -42 20 -55 35 -30 35
28 0 98 62 119 104 26 55 20 72 -31 87 -51 15 -133 -1 -185 -36 l-36 -24 0 47
c0 55 -26 116 -65 155 -33 32 -44 33 -78 7z m73 -56 c28 -43 39 -141 21 -197
-13 -40 -55 -82 -70 -72 -47 29 -69 180 -36 246 36 71 49 75 85 23z m-225
-143 c46 -21 102 -77 107 -106 3 -17 -3 -20 -44 -23 -85 -6 -208 70 -208 128
0 17 7 20 53 20 29 0 69 -9 92 -19z m520 8 c13 -21 -43 -86 -96 -113 -55 -27
-142 -36 -154 -16 -15 24 45 89 110 120 43 21 130 27 140 9z m-366 -175 c-14
-14 -17 -14 -29 0 -10 13 -10 19 0 32 12 14 15 14 29 0 14 -15 14 -17 0 -32z
m100 0 c-14 -14 -17 -14 -29 0 -10 13 -10 19 0 32 12 14 15 14 29 0 14 -15 14
-17 0 -32z m-145 -12 c8 -13 -30 -68 -66 -94 -43 -32 -90 -48 -144 -48 -37 0
-44 3 -44 19 0 29 47 79 99 106 46 24 144 35 155 17z m104 -14 c30 -33 42 -71
42 -134 0 -61 -17 -110 -48 -137 -26 -23 -36 -17 -63 35 -37 72 -26 184 23
246 14 17 21 15 46 -10z m228 -14 c49 -30 91 -85 79 -104 -10 -16 -97 -11
-140 9 -63 29 -124 98 -110 122 14 22 119 6 171 -27z"/>
<path d="M964 410 c0 -35 4 -50 13 -50 7 0 13 9 13 20 0 11 4 20 8 20 5 0 17
-9 27 -20 17 -19 45 -27 45 -14 0 3 -12 15 -26 26 l-26 21 29 23 c35 29 12 32
-28 3 l-29 -20 0 20 c0 12 -6 21 -13 21 -9 0 -13 -15 -13 -50z"/>
<path d="M1090 410 l0 -50 45 0 c25 0 45 5 45 10 0 6 -16 10 -35 10 -19 0 -35
5 -35 10 0 6 14 10 30 10 17 0 30 5 30 10 0 6 -13 10 -30 10 -16 0 -30 5 -30
10 0 6 16 10 35 10 19 0 35 5 35 10 0 6 -20 10 -45 10 l-45 0 0 -50z"/>
<path d="M1202 413 l3 -48 48 -3 c28 -2 47 1 47 7 0 6 -19 11 -41 11 l-42 0 7
40 c5 32 3 40 -9 40 -13 0 -15 -10 -13 -47z"/>
<path d="M1310 426 c0 -58 7 -66 58 -66 50 0 48 16 -3 22 -28 3 -30 5 -27 41
3 28 0 37 -12 37 -12 0 -16 -10 -16 -34z"/>
<path d="M1400 452 c0 -5 11 -19 25 -32 16 -15 23 -30 19 -42 -3 -12 0 -18 10
-18 10 0 16 9 16 22 0 12 10 32 22 45 28 30 15 43 -15 15 l-24 -22 -18 20
c-19 21 -35 26 -35 12z"/>
<path d="M1615 414 c-26 -44 -27 -70 -3 -46 15 15 61 15 76 0 6 -6 14 -9 17
-6 7 7 -44 98 -55 98 -4 0 -20 -21 -35 -46z m49 1 c4 -10 -1 -15 -14 -15 -13
0 -18 5 -14 15 4 8 10 15 14 15 4 0 10 -7 14 -15z"/>
<path d="M1732 448 c-16 -16 -15 -63 2 -77 18 -15 78 -11 83 5 2 7 -10 11 -34
10 -34 -1 -38 2 -38 24 0 22 4 25 38 24 24 -1 36 3 34 10 -5 16 -70 19 -85 4z"/>
<path d="M1844 435 c-15 -23 -15 -27 0 -50 16 -25 47 -32 80 -19 29 11 16 25
-17 19 -24 -5 -37 -2 -46 9 -22 26 4 49 46 41 33 -6 46 8 17 19 -33 13 -64 6
-80 -19z"/>
<path d="M1966 444 c-34 -33 -8 -84 43 -84 34 0 51 17 51 50 0 14 -5 31 -12
38 -17 17 -64 15 -82 -4z m69 -34 c0 -20 -6 -26 -26 -28 -17 -2 -29 3 -32 12
-11 28 4 47 32 44 20 -2 26 -8 26 -28z"/>
<path d="M2080 432 c0 -41 26 -72 60 -72 34 0 50 23 50 69 0 44 -18 38 -22 -6
-3 -33 -6 -38 -28 -38 -22 0 -25 5 -28 38 -4 45 -32 53 -32 9z"/>
<path d="M2205 450 c3 -5 15 -10 26 -10 16 0 19 -7 19 -40 0 -22 5 -40 10 -40
6 0 10 18 10 40 0 33 3 40 20 40 11 0 20 5 20 10 0 6 -25 10 -56 10 -34 0 -53
-4 -49 -10z"/>
<path d="M2330 450 c0 -5 5 -10 10 -10 17 0 11 -52 -7 -66 -16 -12 -13 -13 25
-14 23 0 42 5 42 10 0 6 -7 10 -15 10 -10 0 -15 10 -15 30 0 20 5 30 15 30 8
0 15 5 15 10 0 6 -16 10 -35 10 -19 0 -35 -4 -35 -10z"/>
<path d="M2420 410 c0 -27 5 -50 10 -50 6 0 10 15 10 33 l1 32 29 -32 c16 -18
34 -33 40 -33 5 0 10 23 10 50 0 37 -4 50 -14 50 -11 0 -13 -9 -9 -37 l5 -38
-32 38 c-17 20 -36 37 -41 37 -5 0 -9 -22 -9 -50z"/>
<path d="M2556 445 c-34 -35 -8 -85 44 -85 30 0 57 31 45 50 -8 13 -55 13 -55
0 0 -5 10 -10 22 -10 16 0 19 -3 11 -11 -6 -6 -21 -9 -34 -7 -18 2 -24 9 -24
28 0 22 4 25 38 24 24 -1 36 3 34 10 -6 18 -63 19 -81 1z"/>
<path d="M2742 441 c9 -15 9 -23 -1 -35 -22 -26 3 -46 54 -44 44 2 45 4 36 57
-1 2 -7 -2 -14 -8 -11 -8 -18 -6 -32 9 -18 20 -17 20 13 20 17 0 34 5 37 10 4
6 -15 10 -49 10 -53 0 -55 -1 -44 -19z m48 -46 c10 -13 9 -15 -9 -15 -12 0
-21 6 -21 15 0 8 4 15 9 15 5 0 14 -7 21 -15z"/>
<path d="M2920 450 c0 -5 12 -10 26 -10 23 0 25 -3 22 -37 -2 -22 2 -38 10
-40 8 -3 12 8 12 36 0 34 3 41 20 41 11 0 20 5 20 10 0 6 -25 10 -55 10 -30 0
-55 -4 -55 -10z"/>
<path d="M3048 410 c-22 -39 -25 -50 -13 -50 8 0 15 5 15 10 0 15 68 12 73 -2
2 -7 8 -9 13 -5 10 9 -36 97 -51 97 -5 0 -22 -23 -37 -50z m52 -2 c0 -5 -7 -8
-15 -8 -17 0 -18 2 -9 25 5 13 8 14 15 3 5 -7 9 -16 9 -20z"/>
<path d="M3170 435 c23 -24 23 -25 5 -45 -25 -28 -10 -38 18 -12 22 21 23 21
35 2 7 -11 20 -20 29 -20 14 0 12 4 -7 25 l-23 25 23 25 c19 20 20 25 7 25 -9
0 -22 -9 -30 -20 l-14 -20 -18 20 c-10 11 -25 20 -33 20 -12 0 -10 -6 8 -25z"/>
</g>
</svg>
