<svg xmlns="http://www.w3.org/2000/svg" viewBox="0 0 900 995.152"><g data-name="Group 382"><path fill="#f0f0f0" d="M685.095 986.507L383.213 600.459a90.721 90.721 0 01128.113-3.937L624.384 702.7a138.536 138.536 0 0048.493 29.627 135.219 135.219 0 0026.866 6.574 138.428 138.428 0 00104.334-27.355 141.26 141.26 0 0021.02-20.008l.934-1.137.933-1.1a4.753 4.753 0 00.082-5.885c-.2-.324-.162-.73-.448-1.014L672.187 536.983l-25.808-24.309-12.7-11.974-221.613-208.73-.214-.2a4.838 4.838 0 00-6.036-.318C306.556 363.288 72.16 497.341 72.16 774.9a611.976 611.976 0 0011.2 116.073A390.58 390.58 0 010 661.866V.008h102.15V0H900v665.19c-.567 10.655-1.6 21.175-2.994 31.579-1.339 10.835-3.692 21.307-5.965 31.819-.852 4.1-1.3 8.321-2.273 12.379l-.283-.243a395.249 395.249 0 01-196.656 254.428zm140.242-302.82c.121.121.082.284.2.447-.119-.122-.08-.325-.201-.446z" data-name="Intersection 12" opacity=".557"/><path fill="#fff" d="M404.55 290.363a4.847 4.847 0 016.227.485L101.977 0H0v647c0 90.856 31.257 174.232 83.256 240.667a609.628 609.628 0 01-11.16-115.644c0-276.533 233.552-410.089 332.454-481.657" data-name="Path 236" opacity=".257"/></g></svg>
